<svg width="24" height="24" viewBox="0 0 24 24" fill="none" xmlns="http://www.w3.org/2000/svg">
<path d="M3 16.5L3 6M9 16.5L9 6M21 7.189L21 15.31C21 16.174 20.067 16.716 19.317 16.287L12.209 12.226C12.0367 12.1276 11.8935 11.9854 11.7939 11.8139C11.6942 11.6423 11.6418 11.4474 11.6418 11.249C11.6418 11.0506 11.6942 10.8557 11.7939 10.6841C11.8935 10.5126 12.0367 10.3704 12.209 10.272L19.317 6.211C19.4882 6.11322 19.682 6.06214 19.8792 6.06287C20.0763 6.0636 20.2698 6.11612 20.4402 6.21517C20.6107 6.31422 20.7521 6.45631 20.8504 6.62723C20.9486 6.79814 21.0002 6.99186 21 7.189Z" stroke="black" stroke-width="1.5" stroke-linecap="round" stroke-linejoin="round"/>
</svg>
